# xmcd
#
# Track frame offsets:
# 150
# 19262
# 53352
# 71397
# 89265
# 110072
# 145190
# 163447
# 182430
# 223375
# 246717
# 264335
# 286120
# 306712
#
# Disc length: 4365 seconds
#
#
# Revision: 0
# Processed by: cddbd v1.5.1PL0 Copyright (c) Steve Scherf et al.
# Submitted via: FreeRIP 2.53 
#
DISCID=d7110b0e
DTITLE=Paul Bibbins - Songs From The Index Of Fools
DYEAR=2004
DGENRE=Blues
TTITLE0=Index of Fools
TTITLE1=Stone Cold Monday
TTITLE2=Love Don't Dare
TTITLE3=Cold Shot
TTITLE4=Insight
TTITLE5=Voodoo Child
TTITLE6=Angle Blue
TTITLE7=Soft Rains Will Come
TTITLE8=Eagle's World Blues
TTITLE9=Everfire, Everwind
TTITLE10=Last perfect Performance
TTITLE11=Come and Go Babe
TTITLE12=If I Try
TTITLE13=Forever Is Not Foreever
EXTD=BluesfestRadio.com
EXTT0=
EXTT1=
EXTT2=
EXTT3=
EXTT4=
EXTT5=
EXTT6=
EXTT7=
EXTT8=
EXTT9=
EXTT10=
EXTT11=
EXTT12=
EXTT13=
PLAYORDER=
